
<svg width="149" height="38" viewBox="0 0 149 38" fill="none" xmlns="http://www.w3.org/2000/svg">
<path d="M23.6469 0.572365L11 17.8182L17.6207 25.4545L14.7485 37.5225C6.30194 35.5918 0 28.0318 0 19C0 8.50659 8.50659 0 19 0C20.6031 0 22.1598 0.198537 23.6469 0.572365Z" fill="#FFC400"/>
<path d="M25.154 1.01877L20.3793 14L25.8966 21.0909L16.6127 37.8515C17.3947 37.9495 18.1914 38 19 38C29.4934 38 38 29.4934 38 19C38 10.6604 32.6271 3.57576 25.154 1.01877Z" fill="#FFC400"/>
<path d="M43 29V9H50.8709C52.3171 9 53.5233 9.2181 54.4896 9.6543C55.4558 10.0905 56.1821 10.696 56.6684 11.4707C57.1548 12.2389 57.3979 13.1243 57.3979 14.127C57.3979 14.9082 57.2444 15.5951 56.9372 16.1875C56.63 16.7734 56.2077 17.2552 55.6702 17.6328C55.1391 18.0039 54.5311 18.2676 53.8464 18.4238V18.6191C54.5951 18.6517 55.2958 18.8665 55.9485 19.2637C56.6076 19.6608 57.142 20.2174 57.5515 20.9336C57.9611 21.6432 58.1658 22.4896 58.1658 23.4727C58.1658 24.5339 57.9067 25.4811 57.3883 26.3145C56.8764 27.1413 56.1181 27.7956 55.1135 28.2773C54.1088 28.7591 52.8706 29 51.3988 29H43ZM47.1562 25.543H50.5445C51.7028 25.543 52.5474 25.3184 53.0786 24.8691C53.6097 24.4134 53.8752 23.8079 53.8752 23.0527C53.8752 22.4993 53.7441 22.0111 53.4817 21.5879C53.2193 21.1647 52.845 20.8327 52.3587 20.5918C51.8787 20.3509 51.306 20.2305 50.6405 20.2305H47.1562V25.543ZM47.1562 17.3691H50.2374C50.8069 17.3691 51.3124 17.2682 51.7539 17.0664C52.2019 16.8581 52.5538 16.5651 52.8098 16.1875C53.0722 15.8099 53.2033 15.3574 53.2033 14.8301C53.2033 14.1074 52.9506 13.5247 52.445 13.082C51.9459 12.6393 51.2356 12.418 50.3142 12.418H47.1562V17.3691Z" fill="#0c3653"/>
<path d="M60.8702 29V9H74.1163V12.4863H65.0264V17.252H73.4348V20.7383H65.0264V25.5137H74.1547V29H60.8702Z" fill="#0c3653"/>
<path d="M76.672 12.4863V9H92.8169V12.4863H86.7985V29H82.6903V12.4863H76.672Z" fill="#0c3653"/>
<path d="M95.4757 29V9H108.491V12.4863H99.6319V17.252H107.628V20.7383H99.6319V29H95.4757Z" fill="#0c3653"/>
<path d="M111.287 29V9H115.443V25.5137H123.871V29H111.287Z" fill="#0c3653"/>
<path d="M130.779 9V29H126.623V9H130.779Z" fill="#0c3653"/>
<path d="M134.199 29V9H141.955C143.446 9 144.716 9.28971 145.765 9.86914C146.815 10.4421 147.615 11.2396 148.165 12.2617C148.722 13.2773 149 14.4492 149 15.7773C149 17.1055 148.718 18.2773 148.155 19.293C147.592 20.3086 146.776 21.0996 145.708 21.666C144.645 22.2324 143.359 22.5156 141.849 22.5156H136.906V19.127H141.177C141.977 19.127 142.636 18.987 143.154 18.707C143.679 18.4206 144.07 18.0267 144.325 17.5254C144.588 17.0176 144.719 16.4349 144.719 15.7773C144.719 15.1133 144.588 14.5339 144.325 14.0391C144.07 13.5378 143.679 13.1504 143.154 12.877C142.63 12.597 141.964 12.457 141.158 12.457H138.355V29H134.199Z" fill="#0c3653"/>
</svg>
