
<svg version="1.1" xmlns="http://www.w3.org/2000/svg" xmlns:xlink="http://www.w3.org/1999/xlink" x="0px" y="0px"
	 width="60px" height="60px" viewBox="-0.73 0 60 60" enable-background="new -0.73 0 60 60" xml:space="preserve">
<linearGradient id="_x33_hf6a_1_" gradientUnits="userSpaceOnUse" x1="254.6958" y1="-749.8052" x2="313.2349" y2="-749.8052" gradientTransform="matrix(1 0 0 -1 -254.6953 -719.8047)">
	<stop  offset="0" style="stop-color:#fcc301"/>
	<stop  offset="1" style="stop-color:#f9c925"/>
</linearGradient>
<path id="_x33_hf6a" fill="url(#_x33_hf6a_1_)" d="M8.79,1.92c-11.26,8.55-12.17,49.4,0,56.6c12.31,7.291,49.75-13.97,49.75-28.3
	C58.54,15.89,20.18-6.74,8.79,1.92z"/>
<path fill="#FFFFFF" d="M20.9,18.76c-0.78,0-1.42,0.63-1.42,1.42V39.82c0,0.789,0.64,1.43,1.42,1.43
	c0.2,0,0.32-0.04,0.7-0.2l16.66-9.7c0.27-0.16,0.64-0.47,0.8-1.31v-0.08c-0.16-0.84-0.53-1.15-0.8-1.31l-16.66-9.7
	c-0.38-0.16-0.5-0.2-0.7-0.2V18.76z M20.9,43.17c-1.846-0.006-3.34-1.504-3.34-3.35V20.18c-0.011-1.839,1.471-3.339,3.31-3.35
	c0.01,0,0.02,0,0.03,0c0.59,0,0.97,0.15,1.45,0.35l0.16,0.07l16.71,9.74c0.974,0.595,1.616,1.606,1.739,2.74l0.011,0.15v0.4
	c-0.128,1.13-0.77,2.138-1.74,2.73l-16.78,9.78l-0.07,0.021C21.88,43.01,21.48,43.17,20.9,43.17L20.9,43.17z"/>
</svg>
